HIERARCHY
ROOT hip
{
  OFFSET 0 0 0
  CHANNELS 6 Xposition Yposition Zposition Zrotation Yrotation Xrotation
  JOINT abdomen
  {
    OFFSET 0 20.6881 -0.73152
    CHANNELS 3 Zrotation Xrotation Yrotation
    JOINT chest
    {
      OFFSET 0 11.7043 -0.48768
      CHANNELS 3 Zrotation Xrotation Yrotation
      JOINT neck
      {
        OFFSET 0 22.1894 -2.19456
        CHANNELS 3 Zrotation Xrotation Yrotation
        JOINT head
        {
          OFFSET -0.24384 7.07133 1.2192
          CHANNELS 3 Zrotation Xrotation Yrotation
          JOINT leftEye
          {
            OFFSET 4.14528 8.04674 8.04672
            CHANNELS 3 Zrotation Xrotation Yrotation
            End Site
            {
              OFFSET 1 0 0
            }
          }
          JOINT rightEye
          {
            OFFSET -3.6576 8.04674 8.04672
            CHANNELS 3 Zrotation Xrotation Yrotation
            End Site
            {
              OFFSET 1 0 0
            }
          }
        }
      }
      JOINT rCollar
      {
        OFFSET -2.68224 19.2634 -4.8768
        CHANNELS 3 Zrotation Xrotation Yrotation
        JOINT rShldr
        {
          OFFSET -8.77824 -1.95073 1.46304
          CHANNELS 3 Zrotation Xrotation Yrotation
          JOINT rForeArm
          {
            OFFSET -28.1742 -1.7115 0.48768
            CHANNELS 3 Zrotation Xrotation Yrotation
            JOINT rHand
            {
              OFFSET -22.5879 0.773209 7.07136
              CHANNELS 3 Zrotation Xrotation Yrotation
              JOINT rThumb1
              {
                OFFSET -1.2192 -0.487915 3.41376
                CHANNELS 3 Zrotation Xrotation Yrotation
                JOINT rThumb2
                {
                  OFFSET -3.37035 -0.52449 3.41376
                  CHANNELS 3 Zrotation Xrotation Yrotation
                  End Site
                  {
                    OFFSET -1.78271 -1.18214 1.43049
                  }
                }
              }
              JOINT rIndex1
              {
                OFFSET -7.75947 0.938293 5.60832
                CHANNELS 3 Zrotation Xrotation Yrotation
                JOINT rIndex2
                {
                  OFFSET -2.54057 -0.884171 1.56538
                  CHANNELS 3 Zrotation Xrotation Yrotation
                  End Site
                  {
                    OFFSET -1.62519 -0.234802 1.16502
                  }
                }
              }
              JOINT rMid1
              {
                OFFSET -8.24714 1.18213 3.41376
                CHANNELS 3 Zrotation Xrotation Yrotation
                JOINT rMid2
                {
                  OFFSET -3.10165 -0.590103 1.0647
                  CHANNELS 3 Zrotation Xrotation Yrotation
                  End Site
                  {
                    OFFSET -2.48547 -0.328903 0.83742
                  }
                }
              }
              JOINT rRing1
              {
                OFFSET -8.82822 0.546677 1.51678
                CHANNELS 3 Zrotation Xrotation Yrotation
                JOINT rRing2
                {
                  OFFSET -2.60934 -0.819778 -0.0198488
                  CHANNELS 3 Zrotation Xrotation Yrotation
                  End Site
                  {
                    OFFSET -2.33842 -0.294052 0.168128
                  }
                }
              }
              JOINT rPinky1
              {
                OFFSET -8.27202 -0.0477905 -0.4584
                CHANNELS 3 Zrotation Xrotation Yrotation
                JOINT rPinky2
                {
                  OFFSET -1.82734 -0.647385 -0.700984
                  CHANNELS 3 Zrotation Xrotation Yrotation
                  End Site
                  {
                    OFFSET -1.69225 -0.51767 -0.607171
                  }
                }
              }
            }
          }
        }
      }
      JOINT lCollar
      {
        OFFSET 2.68224 19.2634 -4.8768
        CHANNELS 3 Zrotation Xrotation Yrotation
        JOINT lShldr
        {
          OFFSET 8.77824 -1.95073 1.46304
          CHANNELS 3 Zrotation Xrotation Yrotation
          JOINT lForeArm
          {
            OFFSET 28.1742 -1.7115 0.48768
            CHANNELS 3 Zrotation Xrotation Yrotation
            JOINT lHand
            {
              OFFSET 22.5879 0.773209 7.07136
              CHANNELS 3 Zrotation Xrotation Yrotation
              JOINT lThumb1
              {
                OFFSET 1.2192 -0.487915 3.41376
                CHANNELS 3 Zrotation Xrotation Yrotation
                JOINT lThumb2
                {
                  OFFSET 3.37035 -0.52449 3.41376
                  CHANNELS 3 Zrotation Xrotation Yrotation
                  End Site
                  {
                    OFFSET 1.78271 -1.18214 1.43049
                  }
                }
              }
              JOINT lIndex1
              {
                OFFSET 7.75947 0.938293 5.60832
                CHANNELS 3 Zrotation Xrotation Yrotation
                JOINT lIndex2
                {
                  OFFSET 2.54057 -0.884171 1.56538
                  CHANNELS 3 Zrotation Xrotation Yrotation
                  End Site
                  {
                    OFFSET 1.62519 -0.234802 1.16502
                  }
                }
              }
              JOINT lMid1
              {
                OFFSET 8.24714 1.18213 3.41376
                CHANNELS 3 Zrotation Xrotation Yrotation
                JOINT lMid2
                {
                  OFFSET 3.10165 -0.590103 1.0647
                  CHANNELS 3 Zrotation Xrotation Yrotation
                  End Site
                  {
                    OFFSET 2.48547 -0.328903 0.83742
                  }
                }
              }
              JOINT lRing1
              {
                OFFSET 8.82822 0.546677 1.51678
                CHANNELS 3 Zrotation Xrotation Yrotation
                JOINT lRing2
                {
                  OFFSET 2.60934 -0.819778 -0.0198488
                  CHANNELS 3 Zrotation Xrotation Yrotation
                  End Site
                  {
                    OFFSET 2.33842 -0.294052 0.168128
                  }
                }
              }
              JOINT lPinky1
              {
                OFFSET 8.27202 -0.0477905 -0.4584
                CHANNELS 3 Zrotation Xrotation Yrotation
                JOINT lPinky2
                {
                  OFFSET 1.82734 -0.647385 -0.700984
                  CHANNELS 3 Zrotation Xrotation Yrotation
                  End Site
                  {
                    OFFSET 1.69225 -0.51767 -0.607171
                  }
                }
              }
            }
          }
        }
      }
    }
  }
  JOINT rButtock
  {
    OFFSET -8.77824 4.35084 1.2192
    CHANNELS 3 Zrotation Xrotation Yrotation
    JOINT rThigh
    {
      OFFSET 0 -1.70687 -2.19456
      CHANNELS 3 Zrotation Xrotation Yrotation
      JOINT rShin
      {
        OFFSET 0 -36.8199 0.73152
        CHANNELS 3 Zrotation Xrotation Yrotation
        JOINT rFoot
        {
          OFFSET 0.73152 -45.1104 -5.12064
          CHANNELS 3 Zrotation Xrotation Yrotation
          End Site
          {
            OFFSET -1.1221 -3.69964 12.103
          }
        }
      }
    }
  }
  JOINT lButtock
  {
    OFFSET 8.77824 4.35084 1.2192
    CHANNELS 3 Zrotation Xrotation Yrotation
    JOINT lThigh
    {
      OFFSET 0 -1.70687 -2.19456
      CHANNELS 3 Zrotation Xrotation Yrotation
      JOINT lShin
      {
        OFFSET 0 -36.8199 0.73152
        CHANNELS 3 Zrotation Xrotation Yrotation
        JOINT lFoot
        {
          OFFSET -0.73152 -45.1104 -5.12064
          CHANNELS 3 Zrotation Xrotation Yrotation
          End Site
          {
            OFFSET 1.1221 -3.69964 12.103
          }
        }
      }
    }
  }
}
MOTION
Frames:	4
Frame Time:	0.03333
0.01184489019215107 -0.3280281126499176 0.0745530053973198 -19.253821671009064 -2.329158056527376 4.320392981171608 -2.3174559138715267 13.961729407310486 3.768792003393173 2.4952513352036476 -9.541809037327766 1.1658677458763123 -4.858269095420837 14.834600687026978 -3.6863281577825546 8.470049947500229 -23.555441200733185 -5.481761991977692 0.04062909894855693 0.09522122796624899 -0.011630519293248653 -0.00032957643270492554 0.0728350190911442 0.0477833126205951 0.005361672956496477 -0.0679145276080817 -0.0004102208185940981 44.80809599161148 27.37019956111908 12.311352789402008 -23.343399167060852 -27.627415359020233 61.80416822433472 -4.33459997177124 -11.092101037502289 -3.926752656698227 -0.03848436113912612 -0.0456781085813418 0.11903756763786077 0.0195104512386024 -0.0005546724423766136 -0.03040906274691224 0.06230394879821688 0.011136369430460036 -0.008901811670511961 7.711519226431847 5.494199730455875 0.4064143868163228 0.02483213203959167 0.004017844330519438 0.060524874133989215 2.89994940161705 1.0439616814255714 0.13405406149104238 -0.07102447561919689 0.06617782870307565 0.02978455857373774 10.14854684472084 0.8118418883532286 -0.05655249115079641 0.004001960624009371 0.08835236309096217 -0.07630442501977086 2.26127453148365 -0.8124738838523626 -0.32730518840253353 -0.07473430596292019 0.05748646566644311 -0.1214674289803952 -50.908488035202026 28.929351568222046 -25.16540229320526 22.072490751743317 -25.07757604122162 -57.334020137786865 5.144811496138573 -12.418126165866852 3.886869214475155 0.017652822425588965 -0.05544603802263737 -0.04348765534814447 0.017732398118823767 0.03724731272086501 -0.09909546934068203 -0.08298817556351423 -0.006791588966734707 -0.04973036062438041 -7.652239054441452 5.487941466271877 -0.3856256324797869 -0.054919151589274406 0.045234994031488895 -0.051058902754448354 -2.8467658907175064 0.9773001540452242 -0.18622088944539428 -0.25845514610409737 0.011885706335306168 0.0751064415089786 -10.296340584754944 0.8265196904540062 -0.14366536983288825 -0.03298322902992368 -0.03475672710919753 0.013031758717261255 -2.173206377774477 -0.6702248565852642 0.27069758623838425 0.07081050658598542 -0.060245211934670806 -0.0679694814607501 -31.92054569721222 -31.89290553331375 -26.359806060791016 -20.10683923959732 58.0709034204483 21.300477236509323 -4.231912940740585 -9.953590482473373 -9.259806275367737 -0.05940812174230814 -0.1113994955085218 0.002153714303858578 35.882205963134766 -31.699853539466858 28.84286642074585 21.399359554052353 59.03272747993469 -19.403518438339233 5.287575758993626 -10.613668709993362 12.931213974952698
0.009524092078208923 -0.9693626761436462 0.19579780101776123 -21.030927300453186 -1.1079397425055504 6.724023744463921 -2.985801547765732 14.4466432929039 4.147663749754429 2.7070568315684795 -9.833169355988503 1.2763415649533272 -4.874489419162273 15.171404331922531 -3.704882673919201 8.613096177577972 -24.712843894958496 -5.545815154910088 0.08756068185903132 0.0025551393628120422 -0.025956349563784897 0.028404504409991205 0.047362782061100006 0.012403540313243866 0.11164583964273334 -0.10185309452936053 -0.07393925101496279 50.386921763420105 30.916479527950287 13.786894977092743 -23.888188004493713 -30.58932512998581 67.70559132099152 -5.231723785400391 -14.592339545488358 -5.210171565413475 -0.1265269028954208 -0.0869461102411151 -0.10143200866878033 0.03029010782483965 0.009475369588471949 -0.002208673395216465 0.0799667980754748 -0.0025956606259569526 -0.06970547838136554 7.662089467048645 5.47075554728508 0.39665923453867435 0.011671071988530457 0.028003990883007646 0.08830475388094783 2.8895528241991997 1.0424393601715565 0.19113509450107813 0.03313504625111818 0.050272014923393726 0.06178604671731591 10.112141221761703 0.8673879224807024 -0.021937284618616104 0.04217115696519613 0.1481594843789935 -0.08702230174094439 2.2541886381804943 -0.7905547879636288 -0.3266422846354544 -0.05799970531370491 0.00948368338868022 -0.21294964710250497 -57.7362334728241 31.929595470428467 -25.30924916267395 22.78389573097229 -27.90872812271118 -62.29065656661987 6.339733600616455 -12.05006405711174 4.208535477519035 0.0752380897756666 -0.062299223500303924 -0.02131997316610068 -0.010478447657078505 -0.01476797042414546 -0.03091685939580202 0.00028096139430999756 -0.030644358485005796 -0.10307148797437549 -7.588214725255966 5.514923818409443 -0.33817611867561936 -0.1714192656800151 0.010541500523686409 -0.07874648727010936 -2.7261073887348175 0.959237739443779 -0.12678835541009903 0.08623570203781128 -0.022931399289518595 0.03717405488714576 -10.283327177166939 0.7684072013944387 -0.14427941758185625 0.027151331305503845 -0.06126754218712449 0.01689263095613569 -2.1038504876196384 -0.6099668517708778 0.24387524463236332 0.059166618157178164 -0.1375868555624038 -0.0074258423410356045 -34.64047998189926 -34.2252391576767 -30.02035617828369 -21.804811656475067 62.92738616466522 21.806746870279312 -4.361834116280079 -10.412191897630692 -10.133145600557327 -0.0511339888907969 -0.15216365572996438 -0.04102599516045302 41.004130840301514 -33.44943165779114 34.41263973712921 22.16356247663498 63.48422348499298 -21.73822045326233 5.25747399777174 -10.827093422412872 13.571430444717407
0.052787669003009796 -2.3917737007141113 0.3455347865819931 -9.926740899682045 -27.15443730354309 3.747631385922432 5.085782445967197 11.594991087913513 6.138785853981972 1.1074670031666756 -9.436046853661537 1.67341947555542 -0.7463769614696503 12.746774554252625 6.2468647956848145 4.3106116354465485 -25.223477482795715 13.607907146215439 -0.04686039173975587 -0.04581527318805456 -0.026709154481068254 0.19183033145964146 0.15528715099208057 -0.13252899516373873 0.029854599852114916 -0.32196442829445004 0.0918372964952141 86.30210280418396 54.209944009780884 -31.798065304756165 -27.454394102096558 -40.87894946336746 85.49384593963623 -11.85044065117836 -51.457074880599976 -18.422188013792038 0.04171583626884967 -0.32261934829875827 -0.2769708540290594 0.3288514190353453 -0.24547627195715904 0.16303786542266607 0.44063455425202847 0.3048719256184995 -0.17742261523380876 7.454734593629837 5.2986690402030945 0.32231347169727087 -0.123709577601403 -0.25052750017493963 -0.11954081710428 2.539781369268894 1.0766464099287987 0.5574415717273951 0.008532693609595299 0.1522986253257841 -0.13058778829872608 9.965855553746223 0.7021943992003798 0.012950228992849588 0.0955326366238296 0.10696055484004319 -0.4288448207080364 2.563172411173582 -0.6709419703111053 -0.06371264811605215 0.03095041844062507 -0.4282147530466318 -0.327555974945426 -50.57474076747894 3.7367892265319824 -56.761524081230164 15.964870154857635 -13.750726729631424 -36.65233254432678 6.92064642906189 32.553622126579285 -11.382265090942383 0.4993317648768425 0.060853439499624074 0.21268859272822738 0.1283500820863992 -0.4487885534763336 -0.3212377801537514 -0.2901949197985232 -0.1786825410090387 0.0357053306652233 -7.447865456342697 5.447249338030815 0.11779105290770531 -0.10039622546173632 0.33741043182089925 -0.21706363186240196 -2.4896912835538387 0.5613110773265362 0.25024197064340115 0.3957795538008213 -0.13676733593456447 0.08837859844788909 -10.378721952438354 0.5256379907950759 -0.1772677176631987 -0.06971639581024647 -0.2285922272130847 -0.20505397813394666 -2.319345697760582 -0.18443573266267776 0.20199336810037494 0.06296976003795862 -0.21796711720526218 0.24925164878368378 -20.70125699043274 -5.85079237818718 -14.672654271125793 -19.72830981016159 51.70243263244629 23.59065055847168 -9.039401113986969 -18.65712806582451 -26.76182359457016 -0.1443408359773457 -0.13562463107518852 -0.005744186346419156 81.59247636795044 -54.30633187294006 71.84236764907837 33.988834619522095 77.87639379501343 -30.407857596874237 -0.6556116789579391 -2.001982033252716 -3.3608313649892807
0.10498971492052078 -1.9817888736724854 0.44378942251205444 -11.430568993091583 -42.943290174007416 10.5271265655756 10.137533694505692 8.370005562901497 6.140189319849014 1.2224018387496471 -8.724514469504356 1.6678961366415024 1.3148319348692894 11.140315756201744 11.460926234722137 4.083756431937218 -25.673241019248962 22.88554072380066 0.007954486354719847 -0.44241763651371 -0.2659250143915415 0.5134830577298999 0.6307940371334553 -0.3027909714728594 -0.043989778496325016 -0.19109377171844244 0.2405010676011443 97.62980103492737 55.51392138004303 -54.79228377342224 -28.065648078918457 -44.57441121339798 91.52873039245605 -10.33345565199852 -65.6874167919159 -20.395585745573044 0.383957801386714 -0.3520832257345319 -0.08746272884309292 0.5808369722217321 -0.9013817366212606 0.4177755117416382 0.8952796272933483 0.661486554890871 -0.1919728028587997 7.521881684660912 5.2597518637776375 0.4175484459847212 -0.36122700199484825 -0.998965110629797 -0.32363307662308216 2.5551663525402546 1.2469542771577835 0.7092003710567951 -0.11672768276184797 0.6747629027813673 -0.20292973145842552 9.799038916826248 0.8113630302250385 -0.27022493071854115 -0.17486177617684007 0.08824217249639332 -1.0434878524392843 3.3162671327590942 -1.0129933152347803 -0.1622984977439046 -0.19543316680938005 -0.5136501928791404 -0.5511098820716143 -54.64757323265076 -15.346867740154266 -71.06715559959412 10.653097853064537 -2.78119795024395 -11.906127333641052 9.434035867452621 62.66228199005127 -21.098168939352036 1.2115587573498487 0.10630147531628609 0.12669169111177325 0.2116060070693493 -0.7325198315083981 -1.3347014039754868 -0.37091849371790886 -0.5444689420983195 -0.23534998996183276 -7.464449554681778 5.235991515219212 0.9832404926419258 -0.09159125620499253 0.707795899361372 -0.6909186858683825 -2.9795124381780624 -0.04132445901632309 0.36481894087046385 0.7503429427742958 -0.368475797586143 0.4096843767911196 -10.892240926623344 0.18384715542197227 -0.8208319824188948 -0.501943314447999 -0.6223583221435547 -0.2880895114503801 -2.565060183405876 -0.06668566726148129 0.5940637830644846 0.5121236806735396 -0.32177920918911695 0.49119767267256975 -11.22389942407608 12.423477172851562 -6.751934140920639 -16.197825372219086 30.22847145795822 16.448841243982315 -11.482717841863632 -20.997869074344635 -38.34073215723038 -0.3633554186671972 -0.33892275765538216 -0.18982456298545003 95.87339401245117 -62.20211148262024 86.60072922706604 21.491191685199738 82.12476074695587 -16.45780920982361 -4.4570716470479965 0.6996019184589386 -12.755593657493591
